# Blender v3.2.1 OBJ File: 'penguin_Enclosure.blend'
# www.blender.org
mtllib Island_beach.mtl
o Penguin_Beach_Cylinder
v -12.016912 -1.564481 -25.469801
v -13.971843 5.528604 -25.546221
v -9.990149 -1.564481 29.735891
v -11.945082 5.528603 29.659466
v -20.576942 -1.564481 44.639275
v -22.531876 5.528603 44.562847
v -46.592392 -1.564481 61.980164
v -46.985786 5.528603 61.846184
v -57.161945 -1.564481 66.558907
v -57.161945 5.528603 64.584343
v -41.580700 -1.564481 -51.617397
v -41.580700 5.528603 -51.617397
v -26.573400 -1.564481 -46.985699
v -28.528334 5.528603 -47.062122
v 17.547462 -2.186351 -25.106262
v 20.196896 5.528603 -25.002687
v 12.411327 -2.186350 -7.905856
v 15.060764 5.528603 -7.802284
v 10.703732 -2.186351 21.530668
v 13.353165 5.528602 21.634241
v 54.668484 -2.186351 60.272736
v 58.854588 5.528603 60.376312
v 69.867172 -2.186351 60.654251
v 69.867172 5.528603 60.654251
v 48.854984 -2.186351 -51.129383
v 48.854984 5.528603 -51.129383
v 27.379017 -2.186351 -45.139694
v 30.028458 5.528603 -45.036125
v 32.013214 -2.186351 51.721260
v 15.603096 -2.186352 37.446693
v 18.252529 5.528602 37.550262
v 34.839779 5.528600 51.674660
v -5.522469 -1.564481 -6.305086
v -6.784105 -1.564479 19.087667
v -8.739038 5.528603 19.011242
v -7.477402 5.528601 -6.381511
v 55.683422 -2.186351 8.139343
v 55.683422 5.528603 8.139343
v -70.273941 5.528603 63.626034
v -70.273941 -1.564481 63.626034
v -74.850929 -1.564481 -49.690590
v -74.850929 5.528603 -49.690590
v 81.328278 5.528603 38.983795
v 81.328278 -2.186351 38.983795
v 77.702301 -2.186351 -2.853214
v 57.911037 -2.186351 -45.866867
v 77.702301 5.528603 -2.853214
v 57.911037 5.528603 -45.866867
v -86.475151 -1.564480 23.717489
v -87.293030 -1.564481 -17.311096
v -87.293030 5.528603 -17.311092
v -86.475151 5.528603 23.717489
vt 0.807164 0.500000
vt 0.807164 1.000000
vt 0.750000 1.000000
vt 0.750000 0.500000
vt 0.457854 0.327608
vt 0.351887 0.447797
vt 0.250000 0.490000
vt 0.080294 0.419706
vt 0.010000 0.250000
vt 0.080294 0.080294
vt 0.250000 0.010000
vt 0.419706 0.080294
vt 0.490000 0.250000
vt 0.625000 1.000000
vt 0.625000 0.500000
vt 0.500000 1.000000
vt 0.500000 0.500000
vt 0.375000 1.000000
vt 0.375000 0.500000
vt 0.250000 0.500000
vt 0.250000 1.000000
vt 0.125000 1.000000
vt 0.125000 0.500000
vt 0.000000 1.000000
vt 0.000000 0.500000
vt 1.000000 0.500000
vt 1.000000 1.000000
vt 0.924953 1.000000
vt 0.924953 0.500000
vt 1.000000 0.500000
vt 0.875000 0.500000
vt 0.875000 1.000000
vt 1.000000 1.000000
vt 0.750000 0.500000
vt 0.750000 1.000000
vt 0.576878 0.500000
vt 0.500000 0.500000
vt 0.500000 1.000000
vt 0.578228 1.000000
vt 0.419706 0.419706
vt 0.490000 0.250000
vt 0.444956 0.141253
vt 0.356206 0.053992
vt 0.250000 0.010000
vt 0.080294 0.080294
vt 0.045147 0.165147
vt 0.010000 0.250000
vt 0.080294 0.419706
vt 0.250000 0.490000
vt 0.375000 0.500000
vt 0.375000 1.000000
vt 0.250000 0.500000
vt 0.250000 1.000000
vt 0.250000 1.000000
vt 0.250000 0.500000
vt 0.125000 0.500000
vt 0.125000 1.000000
vt 0.000000 0.500000
vt 0.000000 1.000000
vt 0.669900 0.500000
vt 0.669900 1.000000
vt 0.750000 0.490000
vt 0.580294 0.419706
vt 0.510000 0.250000
vt 0.545147 0.165147
vt 0.580294 0.080294
vt 0.750000 0.010000
vt 0.854373 0.053233
vt 0.944955 0.141253
vt 0.990000 0.250000
vt 0.919706 0.419706
vt 0.750000 0.490000
vt 0.851887 0.447797
vt 0.957854 0.327608
vt 0.990000 0.250000
vt 0.919706 0.080294
vt 0.750000 0.010000
vt 0.580294 0.080294
vt 0.510000 0.250000
vt 0.580294 0.419706
vt 0.545147 0.165147
vt 0.580294 0.080294
vt 0.250000 0.500000
vt 0.250000 1.000000
vt 0.375000 1.000000
vt 0.375000 0.500000
vt 0.010000 0.250000
vt 0.017597 0.231660
vt 0.042286 0.172055
vt 0.080294 0.080294
vt 0.307412 1.000000
vt 0.307412 0.500000
vt 0.263509 0.500000
vt 0.263509 1.000000
vt 0.312500 0.500000
vt 0.312500 1.000000
vt 0.375000 0.500000
vt 0.375000 1.000000
vt 0.510000 0.250000
vt 0.045147 0.165147
vt 0.010000 0.250000
vt 0.080294 0.080294
vt 0.580294 0.080294
vt 0.542286 0.172055
vt 0.517597 0.231660
vt 0.510000 0.250000
vn 0.9251 0.2580 0.2785
vn 0.0000 1.0000 0.0000
vn 0.7943 0.2250 0.5643
vn 0.5626 0.1053 0.8200
vn 0.3290 0.1478 0.9327
vn 0.3109 0.0377 -0.9497
vn 0.8085 0.2169 -0.5470
vn 0.9172 0.2494 -0.3108
vn -0.9091 0.3159 -0.2715
vn -0.9441 0.3250 -0.0548
vn -0.3427 0.1523 0.9270
vn -0.0252 0.0001 0.9997
vn 0.5024 0.0000 -0.8646
vn -0.2867 0.0557 -0.9564
vn -0.8564 0.2998 -0.4203
vn -0.9091 0.3085 0.2799
vn -0.6359 0.2229 0.7389
vn 0.0000 -1.0000 -0.0000
vn 0.9628 0.2659 0.0478
vn -0.0578 0.0000 -0.9983
vn -0.1454 0.1364 0.9799
vn -0.9266 0.0000 0.3761
vn -0.9335 0.0000 -0.3587
vn 0.9085 0.0000 -0.4180
vn 0.9963 0.0000 -0.0863
vn 0.8840 0.0000 0.4675
vn -0.9998 0.0000 0.0199
usemtl None
s off
f 34/1/1 35/2/1 4/3/1 3/4/1
f 35/5/2 36/6/2 2/7/2 14/8/2 12/9/2 10/10/2 8/11/2 6/12/2 4/13/2
f 3/4/3 4/3/3 6/14/3 5/15/3
f 5/15/4 6/14/4 8/16/4 7/17/4
f 7/17/5 8/16/5 10/18/5 9/19/5
f 11/20/6 12/21/6 14/22/6 13/23/6
f 13/23/7 14/22/7 2/24/7 1/25/7
f 1/26/8 2/27/8 36/28/8 33/29/8
f 15/30/9 17/31/9 18/32/9 16/33/9
f 17/31/10 19/34/10 20/35/10 18/32/10
f 29/36/11 21/37/11 22/38/11 32/39/11
f 18/40/2 20/41/2 31/42/2 32/43/2 22/44/2 24/45/2 38/46/2 26/47/2 28/48/2 16/49/2
f 21/37/12 23/50/12 24/51/12 22/38/12
f 25/52/13 26/53/13 48/54/13 46/55/13
f 25/52/14 27/56/14 28/57/14 26/53/14
f 27/56/15 15/58/15 16/59/15 28/57/15
f 19/34/16 30/60/16 31/61/16 20/35/16
f 31/61/17 30/60/17 29/36/17 32/39/17
f 15/62/18 27/63/18 25/64/18 37/65/18 23/66/18 21/67/18 29/68/18 30/69/18 19/70/18 17/71/18
f 35/2/19 34/1/19 33/29/19 36/28/19
f 1/72/18 33/73/18 34/74/18 3/75/18 5/76/18 7/77/18 9/78/18 11/79/18 13/80/18
f 23/66/18 37/65/18 45/81/18 44/82/18
f 12/21/20 11/20/20 41/83/20 42/84/20
f 9/19/21 10/18/21 39/85/21 40/86/21
f 10/10/2 12/9/2 42/87/2 51/88/2 52/89/2 39/90/2
f 40/86/22 39/85/22 52/91/22 49/92/22
f 42/84/23 41/83/23 50/93/23 51/94/23
f 45/95/24 46/55/24 48/54/24 47/96/24
f 44/97/25 45/95/25 47/96/25 43/98/25
f 37/65/18 25/64/18 46/99/18 45/81/18
f 26/47/2 38/46/2 47/100/2 48/101/2
f 38/46/2 24/45/2 43/102/2 47/100/2
f 24/51/26 23/50/26 44/97/26 43/98/26
f 49/92/27 52/91/27 51/94/27 50/93/27
f 11/79/18 9/78/18 40/103/18 49/104/18 50/105/18 41/106/18
