# Blender v3.2.1 OBJ File: 'penguin_Enclosure.blend'
# www.blender.org
mtllib Penguin_Fence_0.1.mtl
o Fence_0.1_Cylinder.004
v 45.065941 5.790258 69.273506
v 45.065941 18.755743 69.273506
v 45.773048 5.790258 69.566399
v 45.773048 18.755743 69.566399
v 46.065941 5.790258 70.273506
v 46.065941 18.755743 70.273506
v 45.773048 5.790258 70.980614
v 45.773048 18.755743 70.980614
v 45.065941 5.790258 71.273506
v 45.065941 18.755743 71.273506
v 44.358833 5.790258 70.980614
v 44.358833 18.755743 70.980614
v 44.065941 5.790258 70.273506
v 44.065941 18.755743 70.273506
v 44.358833 5.790258 69.566399
v 44.358833 18.755743 69.566399
v 16.619726 5.790258 69.273514
v 16.619726 18.755743 69.273514
v 17.326834 5.790258 69.566406
v 17.326834 18.755743 69.566406
v 17.619726 5.790258 70.273514
v 17.619726 18.755743 70.273514
v 17.326834 5.790258 70.980614
v 17.326834 18.755743 70.980614
v 16.619726 5.790258 71.273514
v 16.619726 18.755743 71.273514
v 15.912619 5.790258 70.980614
v 15.912619 18.755743 70.980614
v 15.619726 5.790258 70.273506
v 15.619726 18.755743 70.273506
v 15.912619 5.790258 69.566406
v 15.912619 18.755743 69.566406
v -13.968552 5.790258 69.273514
v -13.968552 18.755743 69.273514
v -13.261444 5.790258 69.566406
v -13.261444 18.755743 69.566406
v -12.968552 5.790258 70.273514
v -12.968552 18.755743 70.273514
v -13.261444 5.790258 70.980614
v -13.261444 18.755743 70.980614
v -13.968552 5.790258 71.273514
v -13.968552 18.755743 71.273514
v -14.675659 5.790258 70.980614
v -14.675659 18.755743 70.980614
v -14.968552 5.790258 70.273506
v -14.968552 18.755743 70.273506
v -14.675659 5.790258 69.566406
v -14.675659 18.755743 69.566406
v -43.226440 5.790258 69.273514
v -43.226440 18.755743 69.273514
v -42.519333 5.790258 69.566406
v -42.519333 18.755743 69.566406
v -42.226440 5.790258 70.273514
v -42.226440 18.755743 70.273514
v -42.519333 5.790258 70.980614
v -42.519333 18.755743 70.980614
v -43.226440 5.790258 71.273514
v -43.226440 18.755743 71.273514
v -43.933548 5.790258 70.980614
v -43.933548 18.755743 70.980614
v -44.226440 5.790258 70.273506
v -44.226440 18.755743 70.273506
v -43.933548 5.790258 69.566406
v -43.933548 18.755743 69.566406
v -62.284966 7.161619 70.307037
v 62.284954 7.161619 70.307037
v -62.284966 17.218128 70.307037
v 62.284954 17.218128 70.307037
v -62.284966 17.218128 70.930168
v -62.284966 7.161619 70.930168
v 62.284954 7.161619 70.930168
v 62.284954 17.218128 70.930168
vt 1.000000 0.500000
vt 1.000000 1.000000
vt 0.875000 1.000000
vt 0.875000 0.500000
vt 0.750000 1.000000
vt 0.750000 0.500000
vt 0.625000 1.000000
vt 0.625000 0.500000
vt 0.500000 1.000000
vt 0.500000 0.500000
vt 0.375000 1.000000
vt 0.375000 0.500000
vt 0.250000 1.000000
vt 0.250000 0.500000
vt 0.419706 0.419706
vt 0.250000 0.490000
vt 0.080294 0.419706
vt 0.010000 0.250000
vt 0.080294 0.080294
vt 0.250000 0.010000
vt 0.419706 0.080294
vt 0.490000 0.250000
vt 0.125000 1.000000
vt 0.125000 0.500000
vt 0.000000 1.000000
vt 0.000000 0.500000
vt 0.750000 0.490000
vt 0.919706 0.419706
vt 0.990000 0.250000
vt 0.919706 0.080294
vt 0.750000 0.010000
vt 0.580294 0.080294
vt 0.510000 0.250000
vt 0.580294 0.419706
vt 1.000000 0.500000
vt 1.000000 1.000000
vt 0.875000 1.000000
vt 0.875000 0.500000
vt 0.750000 1.000000
vt 0.750000 0.500000
vt 0.625000 1.000000
vt 0.625000 0.500000
vt 0.500000 1.000000
vt 0.500000 0.500000
vt 0.375000 1.000000
vt 0.375000 0.500000
vt 0.250000 1.000000
vt 0.250000 0.500000
vt 0.419706 0.419706
vt 0.250000 0.490000
vt 0.080294 0.419706
vt 0.010000 0.250000
vt 0.080294 0.080294
vt 0.250000 0.010000
vt 0.419706 0.080294
vt 0.490000 0.250000
vt 0.125000 1.000000
vt 0.125000 0.500000
vt 0.000000 1.000000
vt 0.000000 0.500000
vt 0.750000 0.490000
vt 0.919706 0.419706
vt 0.990000 0.250000
vt 0.919706 0.080294
vt 0.750000 0.010000
vt 0.580294 0.080294
vt 0.510000 0.250000
vt 0.580294 0.419706
vt 1.000000 0.500000
vt 1.000000 1.000000
vt 0.875000 1.000000
vt 0.875000 0.500000
vt 0.750000 1.000000
vt 0.750000 0.500000
vt 0.625000 1.000000
vt 0.625000 0.500000
vt 0.500000 1.000000
vt 0.500000 0.500000
vt 0.375000 1.000000
vt 0.375000 0.500000
vt 0.250000 1.000000
vt 0.250000 0.500000
vt 0.419706 0.419706
vt 0.250000 0.490000
vt 0.080294 0.419706
vt 0.010000 0.250000
vt 0.080294 0.080294
vt 0.250000 0.010000
vt 0.419706 0.080294
vt 0.490000 0.250000
vt 0.125000 1.000000
vt 0.125000 0.500000
vt 0.000000 1.000000
vt 0.000000 0.500000
vt 0.750000 0.490000
vt 0.919706 0.419706
vt 0.990000 0.250000
vt 0.919706 0.080294
vt 0.750000 0.010000
vt 0.580294 0.080294
vt 0.510000 0.250000
vt 0.580294 0.419706
vt 1.000000 0.500000
vt 1.000000 1.000000
vt 0.875000 1.000000
vt 0.875000 0.500000
vt 0.750000 1.000000
vt 0.750000 0.500000
vt 0.625000 1.000000
vt 0.625000 0.500000
vt 0.500000 1.000000
vt 0.500000 0.500000
vt 0.375000 1.000000
vt 0.375000 0.500000
vt 0.250000 1.000000
vt 0.250000 0.500000
vt 0.419706 0.419706
vt 0.250000 0.490000
vt 0.080294 0.419706
vt 0.010000 0.250000
vt 0.080294 0.080294
vt 0.250000 0.010000
vt 0.419706 0.080294
vt 0.490000 0.250000
vt 0.125000 1.000000
vt 0.125000 0.500000
vt 0.000000 1.000000
vt 0.000000 0.500000
vt 0.750000 0.490000
vt 0.919706 0.419706
vt 0.990000 0.250000
vt 0.919706 0.080294
vt 0.750000 0.010000
vt 0.580294 0.080294
vt 0.510000 0.250000
vt 0.580294 0.419706
vt 0.000000 0.000000
vt 0.000000 1.000000
vt 1.000000 1.000000
vt 1.000000 0.000000
vt 0.000000 0.000000
vt 1.000000 0.000000
vt 1.000000 1.000000
vt 0.000000 1.000000
vn 0.3827 0.0000 -0.9239
vn 0.9239 0.0000 -0.3827
vn 0.9239 0.0000 0.3827
vn 0.3827 0.0000 0.9239
vn -0.3827 0.0000 0.9239
vn -0.9239 0.0000 0.3827
vn 0.0000 1.0000 0.0000
vn -0.9239 0.0000 -0.3827
vn -0.3827 0.0000 -0.9239
vn 0.0000 -1.0000 0.0000
vn 0.0000 0.0000 -1.0000
vn 0.0000 0.0000 1.0000
vn 1.0000 0.0000 0.0000
vn -1.0000 0.0000 0.0000
usemtl None
s off
f 1/1/1 2/2/1 4/3/1 3/4/1
f 3/4/2 4/3/2 6/5/2 5/6/2
f 5/6/3 6/5/3 8/7/3 7/8/3
f 7/8/4 8/7/4 10/9/4 9/10/4
f 9/10/5 10/9/5 12/11/5 11/12/5
f 11/12/6 12/11/6 14/13/6 13/14/6
f 4/15/7 2/16/7 16/17/7 14/18/7 12/19/7 10/20/7 8/21/7 6/22/7
f 13/14/8 14/13/8 16/23/8 15/24/8
f 15/24/9 16/23/9 2/25/9 1/26/9
f 1/27/10 3/28/10 5/29/10 7/30/10 9/31/10 11/32/10 13/33/10 15/34/10
f 17/35/1 18/36/1 20/37/1 19/38/1
f 19/38/2 20/37/2 22/39/2 21/40/2
f 21/40/3 22/39/3 24/41/3 23/42/3
f 23/42/4 24/41/4 26/43/4 25/44/4
f 25/44/5 26/43/5 28/45/5 27/46/5
f 27/46/6 28/45/6 30/47/6 29/48/6
f 20/49/7 18/50/7 32/51/7 30/52/7 28/53/7 26/54/7 24/55/7 22/56/7
f 29/48/8 30/47/8 32/57/8 31/58/8
f 31/58/9 32/57/9 18/59/9 17/60/9
f 17/61/10 19/62/10 21/63/10 23/64/10 25/65/10 27/66/10 29/67/10 31/68/10
f 33/69/1 34/70/1 36/71/1 35/72/1
f 35/72/2 36/71/2 38/73/2 37/74/2
f 37/74/3 38/73/3 40/75/3 39/76/3
f 39/76/4 40/75/4 42/77/4 41/78/4
f 41/78/5 42/77/5 44/79/5 43/80/5
f 43/80/6 44/79/6 46/81/6 45/82/6
f 36/83/7 34/84/7 48/85/7 46/86/7 44/87/7 42/88/7 40/89/7 38/90/7
f 45/82/8 46/81/8 48/91/8 47/92/8
f 47/92/9 48/91/9 34/93/9 33/94/9
f 33/95/10 35/96/10 37/97/10 39/98/10 41/99/10 43/100/10 45/101/10 47/102/10
f 49/103/1 50/104/1 52/105/1 51/106/1
f 51/106/2 52/105/2 54/107/2 53/108/2
f 53/108/3 54/107/3 56/109/3 55/110/3
f 55/110/4 56/109/4 58/111/4 57/112/4
f 57/112/5 58/111/5 60/113/5 59/114/5
f 59/114/6 60/113/6 62/115/6 61/116/6
f 52/117/7 50/118/7 64/119/7 62/120/7 60/121/7 58/122/7 56/123/7 54/124/7
f 61/116/8 62/115/8 64/125/8 63/126/8
f 63/126/9 64/125/9 50/127/9 49/128/9
f 49/129/10 51/130/10 53/131/10 55/132/10 57/133/10 59/134/10 61/135/10 63/136/10
f 65/137/11 67/138/11 68/139/11 66/140/11
f 70/141/12 71/142/12 72/143/12 69/144/12
f 66/140/13 68/139/13 72/143/13 71/142/13
f 67/138/14 65/137/14 70/141/14 69/144/14
f 68/139/7 67/138/7 69/144/7 72/143/7
f 65/137/10 66/140/10 71/142/10 70/141/10
