# Blender v3.2.1 OBJ File: 'penguin_Enclosure.blend'
# www.blender.org
mtllib Penguin_Fence_0.3.mtl
o Fence_0.2_Plane
v -72.758499 -1.226800 -52.870712
v 47.607231 -1.226800 -52.870712
v -72.758499 8.829708 -52.870708
v 47.607231 8.829708 -52.870708
v 28.446209 -2.786208 -53.332283
v 28.446209 10.179277 -53.332283
v 29.153320 -2.786208 -53.039391
v 29.153320 10.179277 -53.039391
v 29.446213 -2.786208 -52.332283
v 29.446213 10.179277 -52.332283
v 29.153320 -2.786208 -51.625175
v 29.153320 10.179277 -51.625175
v 28.446209 -2.786208 -51.332283
v 28.446209 10.179277 -51.332283
v 27.739101 -2.786208 -51.625175
v 27.739101 10.179277 -51.625175
v 27.446209 -2.786208 -52.332283
v 27.446209 10.179277 -52.332283
v 27.739101 -2.786208 -53.039391
v 27.739101 10.179277 -53.039391
v -0.000002 -2.786208 -53.332279
v -0.000002 10.179277 -53.332279
v 0.707106 -2.786208 -53.039387
v 0.707106 10.179277 -53.039387
v 0.999997 -2.786208 -52.332279
v 0.999997 10.179277 -52.332279
v 0.707106 -2.786208 -51.625172
v 0.707106 10.179277 -51.625172
v -0.000002 -2.786208 -51.332279
v -0.000002 10.179277 -51.332279
v -0.707110 -2.786208 -51.625172
v -0.707110 10.179277 -51.625172
v -1.000002 -2.786208 -52.332279
v -1.000002 10.179277 -52.332279
v -0.707110 -2.786208 -53.039387
v -0.707110 10.179277 -53.039387
v -30.588276 -2.786208 -53.332279
v -30.588276 10.179277 -53.332279
v -29.881172 -2.786208 -53.039387
v -29.881172 10.179277 -53.039387
v -29.588280 -2.786208 -52.332279
v -29.588280 10.179277 -52.332279
v -29.881172 -2.786208 -51.625172
v -29.881172 10.179277 -51.625172
v -30.588276 -2.786208 -51.332279
v -30.588276 10.179277 -51.332279
v -31.295385 -2.786208 -51.625172
v -31.295385 10.179277 -51.625172
v -31.588278 -2.786208 -52.332279
v -31.588278 10.179277 -52.332279
v -31.295385 -2.786208 -53.039387
v -31.295385 10.179277 -53.039387
v -59.846165 -2.786208 -53.332279
v -59.846165 10.179277 -53.332279
v -59.139061 -2.786208 -53.039387
v -59.139061 10.179277 -53.039387
v -58.846165 -2.786208 -52.332279
v -58.846165 10.179277 -52.332279
v -59.139061 -2.786208 -51.625172
v -59.139061 10.179277 -51.625172
v -59.846165 -2.786208 -51.332279
v -59.846165 10.179277 -51.332279
v -60.553276 -2.786208 -51.625172
v -60.553276 10.179277 -51.625172
v -60.846161 -2.786208 -52.332279
v -60.846161 10.179277 -52.332279
v -60.553276 -2.786208 -53.039387
v -60.553276 10.179277 -53.039387
v -72.758499 8.829708 -52.011612
v -72.758499 -1.226800 -52.011612
v 47.607231 -1.226800 -52.011612
v 47.607231 8.829708 -52.011612
vt 0.000000 0.000000
vt 0.000000 1.000000
vt 1.000000 1.000000
vt 1.000000 0.000000
vt 1.000000 0.500000
vt 1.000000 1.000000
vt 0.875000 1.000000
vt 0.875000 0.500000
vt 0.750000 1.000000
vt 0.750000 0.500000
vt 0.625000 1.000000
vt 0.625000 0.500000
vt 0.500000 1.000000
vt 0.500000 0.500000
vt 0.375000 1.000000
vt 0.375000 0.500000
vt 0.250000 1.000000
vt 0.250000 0.500000
vt 0.419706 0.419706
vt 0.250000 0.490000
vt 0.080294 0.419706
vt 0.010000 0.250000
vt 0.080294 0.080294
vt 0.250000 0.010000
vt 0.419706 0.080294
vt 0.490000 0.250000
vt 0.125000 1.000000
vt 0.125000 0.500000
vt 0.000000 1.000000
vt 0.000000 0.500000
vt 0.750000 0.490000
vt 0.919706 0.419706
vt 0.990000 0.250000
vt 0.919706 0.080294
vt 0.750000 0.010000
vt 0.580294 0.080294
vt 0.510000 0.250000
vt 0.580294 0.419706
vt 1.000000 0.500000
vt 1.000000 1.000000
vt 0.875000 1.000000
vt 0.875000 0.500000
vt 0.750000 1.000000
vt 0.750000 0.500000
vt 0.625000 1.000000
vt 0.625000 0.500000
vt 0.500000 1.000000
vt 0.500000 0.500000
vt 0.375000 1.000000
vt 0.375000 0.500000
vt 0.250000 1.000000
vt 0.250000 0.500000
vt 0.419706 0.419706
vt 0.250000 0.490000
vt 0.080294 0.419706
vt 0.010000 0.250000
vt 0.080294 0.080294
vt 0.250000 0.010000
vt 0.419706 0.080294
vt 0.490000 0.250000
vt 0.125000 1.000000
vt 0.125000 0.500000
vt 0.000000 1.000000
vt 0.000000 0.500000
vt 0.750000 0.490000
vt 0.919706 0.419706
vt 0.990000 0.250000
vt 0.919706 0.080294
vt 0.750000 0.010000
vt 0.580294 0.080294
vt 0.510000 0.250000
vt 0.580294 0.419706
vt 1.000000 0.500000
vt 1.000000 1.000000
vt 0.875000 1.000000
vt 0.875000 0.500000
vt 0.750000 1.000000
vt 0.750000 0.500000
vt 0.625000 1.000000
vt 0.625000 0.500000
vt 0.500000 1.000000
vt 0.500000 0.500000
vt 0.375000 1.000000
vt 0.375000 0.500000
vt 0.250000 1.000000
vt 0.250000 0.500000
vt 0.419706 0.419706
vt 0.250000 0.490000
vt 0.080294 0.419706
vt 0.010000 0.250000
vt 0.080294 0.080294
vt 0.250000 0.010000
vt 0.419706 0.080294
vt 0.490000 0.250000
vt 0.125000 1.000000
vt 0.125000 0.500000
vt 0.000000 1.000000
vt 0.000000 0.500000
vt 0.750000 0.490000
vt 0.919706 0.419706
vt 0.990000 0.250000
vt 0.919706 0.080294
vt 0.750000 0.010000
vt 0.580294 0.080294
vt 0.510000 0.250000
vt 0.580294 0.419706
vt 1.000000 0.500000
vt 1.000000 1.000000
vt 0.875000 1.000000
vt 0.875000 0.500000
vt 0.750000 1.000000
vt 0.750000 0.500000
vt 0.625000 1.000000
vt 0.625000 0.500000
vt 0.500000 1.000000
vt 0.500000 0.500000
vt 0.375000 1.000000
vt 0.375000 0.500000
vt 0.250000 1.000000
vt 0.250000 0.500000
vt 0.419706 0.419706
vt 0.250000 0.490000
vt 0.080294 0.419706
vt 0.010000 0.250000
vt 0.080294 0.080294
vt 0.250000 0.010000
vt 0.419706 0.080294
vt 0.490000 0.250000
vt 0.125000 1.000000
vt 0.125000 0.500000
vt 0.000000 1.000000
vt 0.000000 0.500000
vt 0.750000 0.490000
vt 0.919706 0.419706
vt 0.990000 0.250000
vt 0.919706 0.080294
vt 0.750000 0.010000
vt 0.580294 0.080294
vt 0.510000 0.250000
vt 0.580294 0.419706
vt 0.000000 0.000000
vt 1.000000 0.000000
vt 1.000000 1.000000
vt 0.000000 1.000000
vn 0.0000 0.0000 -1.0000
vn 0.3827 0.0000 -0.9239
vn 0.9239 0.0000 -0.3827
vn 0.9239 0.0000 0.3827
vn 0.3827 0.0000 0.9239
vn -0.3827 0.0000 0.9239
vn -0.9239 0.0000 0.3827
vn 0.0000 1.0000 0.0000
vn -0.9239 0.0000 -0.3827
vn -0.3827 0.0000 -0.9239
vn 0.0000 -1.0000 0.0000
vn 0.0000 0.0000 1.0000
vn 1.0000 -0.0000 0.0000
vn -1.0000 0.0000 0.0000
usemtl None
s off
f 1/1/1 3/2/1 4/3/1 2/4/1
f 5/5/2 6/6/2 8/7/2 7/8/2
f 7/8/3 8/7/3 10/9/3 9/10/3
f 9/10/4 10/9/4 12/11/4 11/12/4
f 11/12/5 12/11/5 14/13/5 13/14/5
f 13/14/6 14/13/6 16/15/6 15/16/6
f 15/16/7 16/15/7 18/17/7 17/18/7
f 8/19/8 6/20/8 20/21/8 18/22/8 16/23/8 14/24/8 12/25/8 10/26/8
f 17/18/9 18/17/9 20/27/9 19/28/9
f 19/28/10 20/27/10 6/29/10 5/30/10
f 5/31/11 7/32/11 9/33/11 11/34/11 13/35/11 15/36/11 17/37/11 19/38/11
f 21/39/2 22/40/2 24/41/2 23/42/2
f 23/42/3 24/41/3 26/43/3 25/44/3
f 25/44/4 26/43/4 28/45/4 27/46/4
f 27/46/5 28/45/5 30/47/5 29/48/5
f 29/48/6 30/47/6 32/49/6 31/50/6
f 31/50/7 32/49/7 34/51/7 33/52/7
f 24/53/8 22/54/8 36/55/8 34/56/8 32/57/8 30/58/8 28/59/8 26/60/8
f 33/52/9 34/51/9 36/61/9 35/62/9
f 35/62/10 36/61/10 22/63/10 21/64/10
f 21/65/11 23/66/11 25/67/11 27/68/11 29/69/11 31/70/11 33/71/11 35/72/11
f 37/73/2 38/74/2 40/75/2 39/76/2
f 39/76/3 40/75/3 42/77/3 41/78/3
f 41/78/4 42/77/4 44/79/4 43/80/4
f 43/80/5 44/79/5 46/81/5 45/82/5
f 45/82/6 46/81/6 48/83/6 47/84/6
f 47/84/7 48/83/7 50/85/7 49/86/7
f 40/87/8 38/88/8 52/89/8 50/90/8 48/91/8 46/92/8 44/93/8 42/94/8
f 49/86/9 50/85/9 52/95/9 51/96/9
f 51/96/10 52/95/10 38/97/10 37/98/10
f 37/99/11 39/100/11 41/101/11 43/102/11 45/103/11 47/104/11 49/105/11 51/106/11
f 53/107/2 54/108/2 56/109/2 55/110/2
f 55/110/3 56/109/3 58/111/3 57/112/3
f 57/112/4 58/111/4 60/113/4 59/114/4
f 59/114/5 60/113/5 62/115/5 61/116/5
f 61/116/6 62/115/6 64/117/6 63/118/6
f 63/118/7 64/117/7 66/119/7 65/120/7
f 56/121/8 54/122/8 68/123/8 66/124/8 64/125/8 62/126/8 60/127/8 58/128/8
f 65/120/9 66/119/9 68/129/9 67/130/9
f 67/130/10 68/129/10 54/131/10 53/132/10
f 53/133/11 55/134/11 57/135/11 59/136/11 61/137/11 63/138/11 65/139/11 67/140/11
f 70/141/12 71/142/12 72/143/12 69/144/12
f 2/4/13 4/3/13 72/143/13 71/142/13
f 3/2/14 1/1/14 70/141/14 69/144/14
f 4/3/8 3/2/8 69/144/8 72/143/8
f 1/1/11 2/4/11 71/142/11 70/141/11
